<svg id="Group_241" data-name="Group 241" xmlns="http://www.w3.org/2000/svg" width="18.001" height="18.001" viewBox="0 0 18.001 18.001">
  <circle id="Ellipse_1" data-name="Ellipse 1" cx="1.022" cy="1.022" r="1.022" transform="translate(11.573 10.225)" fill="#b4b4b4"/>
  <path id="Path_151" data-name="Path 151" d="M41.577,19.88c-.666,0-2,.328-2.043.985a2.49,2.49,0,0,0,4.086,0C43.575,20.208,42.243,19.88,41.577,19.88Z" transform="translate(-28.991 -6.852)" fill="#b4b4b4" fill-rule="evenodd"/>
  <path id="Path_152" data-name="Path 152" d="M41.274,12.661V8.323L34.524,5.38l-6.75,2.943v4.419a9.192,9.192,0,0,0,6.75,8.838,8.25,8.25,0,0,0,1.44-.5,5.4,5.4,0,1,0,5.31-8.424Zm-6.3,5.319a5.189,5.189,0,0,0,.207,1.458,5.928,5.928,0,0,1-.657.27,7.387,7.387,0,0,1-4.95-6.966V9.5l4.95-2.16,4.95,2.16v3.159A5.4,5.4,0,0,0,34.974,17.98Zm5.4,3.6a3.6,3.6,0,1,1,3.6-3.6A3.6,3.6,0,0,1,40.374,21.581Z" transform="translate(-27.774 -5.38)" fill="#b4b4b4" fill-rule="evenodd"/>
</svg>
