<svg id="Group_1994" data-name="Group 1994" xmlns="http://www.w3.org/2000/svg" width="18" height="16" viewBox="0 0 18 16">
  <g id="Group_1990" data-name="Group 1990">
    <path id="Path_1286" data-name="Path 1286" d="M19.1,11.2a8.1,8.1,0,1,0-16.2.053A1.746,1.746,0,0,0,2,12.778v1.778a1.794,1.794,0,0,0,1.8,1.778h.9V10.911a6.3,6.3,0,0,1,12.6,0v6.311H10.1V19h7.2a1.794,1.794,0,0,0,1.8-1.778V16.138A1.641,1.641,0,0,0,20,14.68V12.636A1.635,1.635,0,0,0,19.1,11.2Z" transform="translate(-2 -3)" fill="#053c6d"/>
    <circle id="Ellipse_196" data-name="Ellipse 196" cx="1" cy="1" r="1" transform="translate(5.93 7.769)" fill="#053c6d"/>
    <circle id="Ellipse_197" data-name="Ellipse 197" cx="1" cy="1" r="1" transform="translate(9.996 7.769)" fill="#053c6d"/>
    <path id="Path_1287" data-name="Path 1287" d="M16.9,10.462a5.494,5.494,0,0,0-10.886,1.26A7.206,7.206,0,0,0,10.435,6.5,7.32,7.32,0,0,0,16.9,10.462Z" transform="translate(-2.453 -3.33)" fill="#053c6d"/>
  </g>
</svg>
