<svg id="Group_236" data-name="Group 236" xmlns="http://www.w3.org/2000/svg" width="18" height="18" viewBox="0 0 18 18">
  <path id="Path_145" data-name="Path 145" d="M0,0H18V18H0Z" fill="none"/>
  <path id="Path_146" data-name="Path 146" d="M15.865,3H3.541A1.525,1.525,0,0,0,2,4.5v9A1.525,1.525,0,0,0,3.541,15H15.865a1.525,1.525,0,0,0,1.541-1.5v-9A1.525,1.525,0,0,0,15.865,3Zm0,10.5H3.541v-9H15.865ZM3.541,0H15.865V1.5H3.541Zm0,16.5H15.865V18H3.541ZM9.7,9A1.876,1.876,0,1,0,7.777,7.125,1.9,1.9,0,0,0,9.7,9Zm0-2.625a.75.75,0,1,1-.77.75A.763.763,0,0,1,9.7,6.375Zm3.851,5.618C13.554,10.425,11,9.75,9.7,9.75s-3.851.675-3.851,2.243v.757h7.7Zm-6.309-.368a4.413,4.413,0,0,1,4.922,0Z" transform="translate(-0.703)" fill="#b4b4b4"/>
</svg>
