<svg xmlns="http://www.w3.org/2000/svg" width="18" height="18" viewBox="0 0 18 18">
  <path id="Path_802" data-name="Path 802" d="M18.147,11.882A6.826,6.826,0,0,0,18.212,11a6.826,6.826,0,0,0-.065-.882L20.1,8.633a.446.446,0,0,0,.111-.576L18.36,4.943a.465.465,0,0,0-.407-.225.443.443,0,0,0-.157.027l-2.3.9a6.808,6.808,0,0,0-1.564-.882l-.352-2.385A.447.447,0,0,0,13.123,2h-3.7a.447.447,0,0,0-.453.378L8.617,4.763a7.159,7.159,0,0,0-1.564.882l-2.3-.9a.537.537,0,0,0-.167-.027.461.461,0,0,0-.4.225L2.335,8.057a.436.436,0,0,0,.111.576L4.4,10.118A6.946,6.946,0,0,0,4.333,11a6.946,6.946,0,0,0,.065.882L2.446,13.367a.446.446,0,0,0-.111.576l1.85,3.114a.465.465,0,0,0,.407.225.443.443,0,0,0,.157-.027l2.3-.9a6.808,6.808,0,0,0,1.564.882l.352,2.385A.447.447,0,0,0,9.422,20h3.7a.447.447,0,0,0,.453-.378l.352-2.385a7.159,7.159,0,0,0,1.564-.882l2.3.9a.537.537,0,0,0,.167.027.461.461,0,0,0,.4-.225l1.85-3.114a.446.446,0,0,0-.111-.576Zm-1.832-1.539a4.68,4.68,0,0,1,.046.657,6.52,6.52,0,0,1-.046.657l-.13,1.017.823.63,1,.756-.648,1.089-1.175-.459-.962-.378-.833.612a5.457,5.457,0,0,1-1.157.657l-.981.387-.148,1.017L11.92,18.2h-1.3l-.176-1.215L10.3,15.968l-.981-.387a5.288,5.288,0,0,1-1.138-.639l-.842-.63L6.36,14.7l-1.175.459-.648-1.089,1-.756.823-.63-.13-1.017c-.028-.279-.046-.486-.046-.666s.019-.387.046-.657l.13-1.017L5.536,8.7l-1-.756.648-1.089L6.36,7.31l.962.378.833-.612a5.457,5.457,0,0,1,1.157-.657l.981-.387.148-1.017L10.625,3.8h1.286l.176,1.215.148,1.017.981.387a5.288,5.288,0,0,1,1.138.639l.842.63.981-.387,1.175-.459L18,7.931l-.99.765-.823.63ZM11.273,7.4a3.6,3.6,0,1,0,3.7,3.6A3.651,3.651,0,0,0,11.273,7.4Zm0,5.4a1.8,1.8,0,1,1,1.85-1.8A1.831,1.831,0,0,1,11.273,12.8Z" transform="translate(-2.271 -2)" fill="#b4b4b4" opacity="0.7"/>
</svg>
