<svg xmlns="http://www.w3.org/2000/svg" width="17.41" height="21" viewBox="0 0 17.41 21">
  <path id="Path_158" data-name="Path 158" d="M12.205,22.5a2.057,2.057,0,0,0,2.051-2.051h-4.1A2.057,2.057,0,0,0,12.205,22.5Zm6.154-6.154V11.218c0-3.149-1.672-5.785-4.615-6.482v-.7a1.538,1.538,0,1,0-3.077,0v.7c-2.933.7-4.615,3.323-4.615,6.482v5.128L4,18.4v1.026H20.41V18.4Zm-2.051,1.026H8.1V11.218c0-2.544,1.549-4.615,4.1-4.615s4.1,2.072,4.1,4.615Z" transform="translate(-3.5 -2)" fill="#b4b4b4" stroke="rgba(0,0,0,0)" stroke-width="1"/>
</svg>
