<svg xmlns="http://www.w3.org/2000/svg" width="20" height="20" viewBox="0 0 20 20">
  <path id="Path_802" data-name="Path 802" d="M19.911,12.98a7.584,7.584,0,0,0,.072-.98,7.584,7.584,0,0,0-.072-.98l2.169-1.65a.5.5,0,0,0,.123-.64L20.148,5.27a.516.516,0,0,0-.452-.25.492.492,0,0,0-.175.03l-2.56,1a7.564,7.564,0,0,0-1.737-.98l-.391-2.65a.5.5,0,0,0-.5-.42H10.217a.5.5,0,0,0-.5.42L9.322,5.07a7.955,7.955,0,0,0-1.737.98l-2.56-1a.6.6,0,0,0-.185-.03.512.512,0,0,0-.442.25L2.342,8.73a.484.484,0,0,0,.123.64l2.169,1.65a7.718,7.718,0,0,0-.072.98,7.718,7.718,0,0,0,.072.98L2.465,14.63a.5.5,0,0,0-.123.64L4.4,18.73a.516.516,0,0,0,.452.25.492.492,0,0,0,.175-.03l2.56-1a7.564,7.564,0,0,0,1.737.98l.391,2.65a.5.5,0,0,0,.5.42h4.112a.5.5,0,0,0,.5-.42l.391-2.65a7.954,7.954,0,0,0,1.737-.98l2.56,1a.6.6,0,0,0,.185.03.512.512,0,0,0,.442-.25L22.2,15.27a.5.5,0,0,0-.123-.64Zm-2.036-1.71a5.2,5.2,0,0,1,.051.73,7.243,7.243,0,0,1-.051.73l-.144,1.13.915.7,1.11.84-.72,1.21-1.306-.51-1.069-.42-.925.68a6.063,6.063,0,0,1-1.285.73l-1.09.43L13.2,18.65,12.993,20H11.553l-.2-1.35-.164-1.13-1.09-.43a5.876,5.876,0,0,1-1.265-.71l-.936-.7-1.09.43-1.306.51-.72-1.21,1.11-.84.915-.7L6.67,12.74c-.031-.31-.051-.54-.051-.74s.021-.43.051-.73l.144-1.13L5.9,9.44,4.789,8.6l.72-1.21,1.306.51,1.069.42.925-.68a6.063,6.063,0,0,1,1.285-.73l1.09-.43.164-1.13L11.553,4h1.429l.2,1.35.164,1.13,1.09.43a5.876,5.876,0,0,1,1.265.71l.936.7,1.09-.43,1.306-.51.72,1.21-1.1.85-.915.7ZM12.273,8a4,4,0,1,0,4.112,4A4.056,4.056,0,0,0,12.273,8Zm0,6a2,2,0,1,1,2.056-2A2.035,2.035,0,0,1,12.273,14Z" transform="translate(-2.271 -2)" fill="#b4b4b4"/>
</svg>
